Two best friends have to choose between life in the streets and loyalty when they are indicted with the help of an
informant, which causes everyone to be a suspect to the boss.A powerful criminal empire starts to crumble when an informant
infiltrates the gang and the obsessed leader launches a campaign to smoke the rat out at any cost. Tiger (Forty Da Great) and
Remo (Melvin Jackson Jr.) are the founders of the Self-Made Bosses, a gang that deals in cash, drugs, and killing. But the more
powerful the SMBs grow, the more Remo begins to feel like he should get out and start a family while he still can. Unfortunately for Remo,
getting out will be the hard part, because the seeds of his destruction have already been sewn. The film also featuresClifton Powell, Yukmouth, and Christina Usher.

Category Dramas DVDs, Rap/Hip Hop Movies, Action/Adventure
Starring Clifton Powell, A.J. Johnson, Forty Da Great, Melvin Jackson, Quest Mcody
Co-Star Angelo Ashmon, Big Herk, Marwvon, MS Nia, Brandy "Focus" Tahnor, Christina Usher
Composer Steve King
Director Dionciel Armstrong
Director of Photography James Maxwell
Screenwriter Dionciel Armstrong


General
Complete name : 5K1 2010 DVDRip Xvid BigPerm LKRG\5k1_LKRG.avi
Format : AVI
Format/Info : Audio Video Interleave
File size : 924 MiB
Duration : 1h 48mn
Overall bit rate : 1 194 Kbps

Video
ID : 0
Format : MPEG-4 Visual
Format profile : Advanced Simple@L5
Format settings, BVOP : Yes
Format settings, QPel : No
Format settings, GMC : No warppoints
Format settings, Matrix : Default (H.263)
Codec ID : XVID
Codec ID/Hint : XviD
Duration : 1h 48mn
Bit rate : 799 Kbps
Width : 704 pixels
Height : 396 pixels
Display aspect ratio : 16:9
Frame rate : 23.976 fps
Resolution : 8 bits
Colorimetry : 4:2:0
Scan type : Progressive
Bits/(Pixel*Frame) : 0.120
Stream size : 618 MiB (67%)
Writing library : XviD 1.2.1 (UTC 2008-12-04)

Audio
ID : 1
Format : AC-3
Format/Info : Audio Coding 3
Codec ID : 2000
Duration : 1h 48mn
Bit rate mode : Constant
Bit rate : 384 Kbps
Channel(s) : 6 channels
Channel positions : Front: L C R, Side: L R, LFE
Sampling rate : 48.0 KHz
Resolution : 16 bits
Stream size : 297 MiB (32%)
Alignment : Aligned on interleaves
Interleave, duration : 32 ms (0.77 video frame)
Language : English
 
http://triumphantpictures.com/5k1movie/ 

 
http://www.youtube.com/watch?v=2rHw4VAxyN4&feature=player_embedded